<?xml version="1.0" standalone="no"?>
<!DOCTYPE svg PUBLIC "-//W3C//DTD SVG 20010904//EN"
 "http://www.w3.org/TR/2001/REC-SVG-20010904/DTD/svg10.dtd">
<svg version="1.0" xmlns="http://www.w3.org/2000/svg"
 width="1216.000000pt" height="1216.000000pt" viewBox="0 0 1216.000000 1216.000000"
 preserveAspectRatio="xMidYMid meet">

<g transform="translate(0.000000,1216.000000) scale(0.100000,-0.100000)"
fill="#000000" stroke="none">
<path d="M5700 8930 l0 -190 -190 0 -190 0 0 -1900 0 -1900 -190 0 -190 0 0
-190 0 -190 -190 0 -190 0 0 -190 0 -190 190 0 190 0 0 -190 0 -190 380 0 380
0 0 -570 0 -570 190 0 190 0 0 570 0 570 380 0 380 0 0 190 0 190 190 0 190 0
0 190 0 190 -190 0 -190 0 0 190 0 190 -190 0 -190 0 0 1900 0 1900 -190 0
-190 0 0 190 0 190 -190 0 -190 0 0 -190z m380 -2090 l0 -1900 -190 0 -190 0
0 1900 0 1900 190 0 190 0 0 -1900z m760 -2470 l0 -190 -950 0 -950 0 0 190 0
190 950 0 950 0 0 -190z"/>
</g>
</svg>
